<mxfile host="app.diagrams.net" agent="Mozilla/5.0 (Windows NT 10.0; Win64; x64) AppleWebKit/537.36 (KHTML, like Gecko) Chrome/129.0.0.0 Safari/537.36" version="24.7.17">
  <diagram name="Page-1" id="0zR5M-d6_lqEYIeoNUao">
    <mxGraphModel dx="1290" dy="563" grid="1" gridSize="10" guides="1" tooltips="1" connect="1" arrows="1" fold="1" page="1" pageScale="1" pageWidth="850" pageHeight="1100" math="0" shadow="0">
      <root>
        <mxCell id="0" />
        <mxCell id="1" parent="0" />
        <mxCell id="FVzBolpwq5gQXFxgnGa_-1" value="Admin" style="shape=umlActor;verticalLabelPosition=bottom;verticalAlign=top;html=1;outlineConnect=0;" vertex="1" parent="1">
          <mxGeometry x="190" y="180" width="30" height="60" as="geometry" />
        </mxCell>
        <mxCell id="FVzBolpwq5gQXFxgnGa_-2" value="Nhấn vào trang thống kê" style="ellipse;whiteSpace=wrap;html=1;" vertex="1" parent="1">
          <mxGeometry x="425" y="171" width="75" height="78" as="geometry" />
        </mxCell>
        <mxCell id="FVzBolpwq5gQXFxgnGa_-3" value="" style="endArrow=none;html=1;rounded=0;" edge="1" parent="1" source="FVzBolpwq5gQXFxgnGa_-1" target="FVzBolpwq5gQXFxgnGa_-4">
          <mxGeometry width="50" height="50" relative="1" as="geometry">
            <mxPoint x="175" y="184" as="sourcePoint" />
            <mxPoint x="390" y="184" as="targetPoint" />
          </mxGeometry>
        </mxCell>
        <mxCell id="FVzBolpwq5gQXFxgnGa_-4" value="Đăng nhập" style="ellipse;whiteSpace=wrap;html=1;" vertex="1" parent="1">
          <mxGeometry x="260" y="180" width="80" height="60" as="geometry" />
        </mxCell>
        <mxCell id="FVzBolpwq5gQXFxgnGa_-6" value="&amp;lt;&amp;lt;include&amp;gt;&amp;gt;" style="endArrow=open;endSize=12;dashed=1;html=1;rounded=0;strokeColor=default;align=center;verticalAlign=middle;fontFamily=Helvetica;fontSize=11;fontColor=default;labelBackgroundColor=default;edgeStyle=none;" edge="1" parent="1" source="FVzBolpwq5gQXFxgnGa_-2" target="FVzBolpwq5gQXFxgnGa_-4">
          <mxGeometry width="160" relative="1" as="geometry">
            <mxPoint x="295" y="135" as="sourcePoint" />
            <mxPoint x="205" y="175" as="targetPoint" />
            <mxPoint as="offset" />
          </mxGeometry>
        </mxCell>
        <mxCell id="FVzBolpwq5gQXFxgnGa_-7" value="Thống kê người dùng" style="ellipse;whiteSpace=wrap;html=1;" vertex="1" parent="1">
          <mxGeometry x="610" y="80" width="90" height="66" as="geometry" />
        </mxCell>
        <mxCell id="FVzBolpwq5gQXFxgnGa_-8" value="&amp;lt;&amp;lt;extend&amp;gt;&amp;gt;" style="endArrow=open;endSize=12;dashed=1;html=1;rounded=0;strokeColor=default;align=center;verticalAlign=middle;fontFamily=Helvetica;fontSize=11;fontColor=default;labelBackgroundColor=default;edgeStyle=none;" edge="1" parent="1" source="FVzBolpwq5gQXFxgnGa_-2" target="FVzBolpwq5gQXFxgnGa_-7">
          <mxGeometry width="160" relative="1" as="geometry">
            <mxPoint x="460" y="219" as="sourcePoint" />
            <mxPoint x="350" y="215" as="targetPoint" />
            <mxPoint as="offset" />
          </mxGeometry>
        </mxCell>
        <mxCell id="FVzBolpwq5gQXFxgnGa_-9" value="Thống kê sản phẩm" style="ellipse;whiteSpace=wrap;html=1;" vertex="1" parent="1">
          <mxGeometry x="610" y="180" width="90" height="76" as="geometry" />
        </mxCell>
        <mxCell id="FVzBolpwq5gQXFxgnGa_-10" value="Thống kê blog" style="ellipse;whiteSpace=wrap;html=1;" vertex="1" parent="1">
          <mxGeometry x="610" y="270" width="80" height="66" as="geometry" />
        </mxCell>
        <mxCell id="FVzBolpwq5gQXFxgnGa_-11" value="&amp;lt;&amp;lt;extend&amp;gt;&amp;gt;" style="endArrow=open;endSize=12;dashed=1;html=1;rounded=0;strokeColor=default;align=center;verticalAlign=middle;fontFamily=Helvetica;fontSize=11;fontColor=default;labelBackgroundColor=default;edgeStyle=none;" edge="1" parent="1" source="FVzBolpwq5gQXFxgnGa_-2" target="FVzBolpwq5gQXFxgnGa_-9">
          <mxGeometry width="160" relative="1" as="geometry">
            <mxPoint x="533" y="205" as="sourcePoint" />
            <mxPoint x="625" y="177" as="targetPoint" />
            <mxPoint as="offset" />
          </mxGeometry>
        </mxCell>
        <mxCell id="FVzBolpwq5gQXFxgnGa_-12" value="&amp;lt;&amp;lt;extend&amp;gt;&amp;gt;" style="endArrow=open;endSize=12;dashed=1;html=1;rounded=0;strokeColor=default;align=center;verticalAlign=middle;fontFamily=Helvetica;fontSize=11;fontColor=default;labelBackgroundColor=default;edgeStyle=none;" edge="1" parent="1" source="FVzBolpwq5gQXFxgnGa_-2" target="FVzBolpwq5gQXFxgnGa_-10">
          <mxGeometry width="160" relative="1" as="geometry">
            <mxPoint x="543" y="215" as="sourcePoint" />
            <mxPoint x="635" y="187" as="targetPoint" />
            <mxPoint as="offset" />
          </mxGeometry>
        </mxCell>
        <mxCell id="FVzBolpwq5gQXFxgnGa_-14" value="Thống kê theo ngày" style="ellipse;whiteSpace=wrap;html=1;" vertex="1" parent="1">
          <mxGeometry x="940" y="50" width="90" height="66" as="geometry" />
        </mxCell>
        <mxCell id="FVzBolpwq5gQXFxgnGa_-15" value="Thống kê theo tháng" style="ellipse;whiteSpace=wrap;html=1;" vertex="1" parent="1">
          <mxGeometry x="940" y="155" width="90" height="66" as="geometry" />
        </mxCell>
        <mxCell id="FVzBolpwq5gQXFxgnGa_-16" value="Thống kê theo quý" style="ellipse;whiteSpace=wrap;html=1;" vertex="1" parent="1">
          <mxGeometry x="940" y="250" width="90" height="66" as="geometry" />
        </mxCell>
        <mxCell id="FVzBolpwq5gQXFxgnGa_-17" value="&amp;lt;&amp;lt;extend&amp;gt;&amp;gt;" style="endArrow=open;endSize=12;dashed=1;html=1;rounded=0;strokeColor=default;align=center;verticalAlign=middle;fontFamily=Helvetica;fontSize=11;fontColor=default;labelBackgroundColor=default;edgeStyle=none;" edge="1" parent="1" source="FVzBolpwq5gQXFxgnGa_-7" target="FVzBolpwq5gQXFxgnGa_-15">
          <mxGeometry width="160" relative="1" as="geometry">
            <mxPoint x="509" y="219" as="sourcePoint" />
            <mxPoint x="623" y="185" as="targetPoint" />
            <mxPoint as="offset" />
          </mxGeometry>
        </mxCell>
        <mxCell id="FVzBolpwq5gQXFxgnGa_-18" value="&amp;lt;&amp;lt;extend&amp;gt;&amp;gt;" style="endArrow=open;endSize=12;dashed=1;html=1;rounded=0;strokeColor=default;align=center;verticalAlign=middle;fontFamily=Helvetica;fontSize=11;fontColor=default;labelBackgroundColor=default;edgeStyle=none;" edge="1" parent="1" source="FVzBolpwq5gQXFxgnGa_-7" target="FVzBolpwq5gQXFxgnGa_-14">
          <mxGeometry width="160" relative="1" as="geometry">
            <mxPoint x="519" y="229" as="sourcePoint" />
            <mxPoint x="633" y="195" as="targetPoint" />
            <mxPoint as="offset" />
          </mxGeometry>
        </mxCell>
        <mxCell id="FVzBolpwq5gQXFxgnGa_-19" value="&amp;lt;&amp;lt;extend&amp;gt;&amp;gt;" style="endArrow=open;endSize=12;dashed=1;html=1;rounded=0;strokeColor=default;align=center;verticalAlign=middle;fontFamily=Helvetica;fontSize=11;fontColor=default;labelBackgroundColor=default;edgeStyle=none;" edge="1" parent="1" source="FVzBolpwq5gQXFxgnGa_-7" target="FVzBolpwq5gQXFxgnGa_-16">
          <mxGeometry width="160" relative="1" as="geometry">
            <mxPoint x="529" y="239" as="sourcePoint" />
            <mxPoint x="643" y="205" as="targetPoint" />
            <mxPoint as="offset" />
          </mxGeometry>
        </mxCell>
        <mxCell id="FVzBolpwq5gQXFxgnGa_-20" value="Thống kê năm" style="ellipse;whiteSpace=wrap;html=1;" vertex="1" parent="1">
          <mxGeometry x="940" y="360" width="90" height="66" as="geometry" />
        </mxCell>
        <mxCell id="FVzBolpwq5gQXFxgnGa_-21" value="&amp;lt;&amp;lt;extend&amp;gt;&amp;gt;" style="endArrow=open;endSize=12;dashed=1;html=1;rounded=0;strokeColor=default;align=center;verticalAlign=middle;fontFamily=Helvetica;fontSize=11;fontColor=default;labelBackgroundColor=default;edgeStyle=none;" edge="1" parent="1" source="FVzBolpwq5gQXFxgnGa_-7" target="FVzBolpwq5gQXFxgnGa_-20">
          <mxGeometry width="160" relative="1" as="geometry">
            <mxPoint x="692" y="200" as="sourcePoint" />
            <mxPoint x="848" y="356" as="targetPoint" />
            <mxPoint as="offset" />
          </mxGeometry>
        </mxCell>
        <mxCell id="FVzBolpwq5gQXFxgnGa_-22" value="&amp;lt;&amp;lt;extend&amp;gt;&amp;gt;" style="endArrow=open;endSize=12;dashed=1;html=1;rounded=0;strokeColor=default;align=center;verticalAlign=middle;fontFamily=Helvetica;fontSize=11;fontColor=default;labelBackgroundColor=default;edgeStyle=none;" edge="1" parent="1" source="FVzBolpwq5gQXFxgnGa_-9" target="FVzBolpwq5gQXFxgnGa_-15">
          <mxGeometry width="160" relative="1" as="geometry">
            <mxPoint x="702" y="192" as="sourcePoint" />
            <mxPoint x="838" y="259" as="targetPoint" />
            <mxPoint as="offset" />
          </mxGeometry>
        </mxCell>
        <mxCell id="FVzBolpwq5gQXFxgnGa_-23" value="&amp;lt;&amp;lt;extend&amp;gt;&amp;gt;" style="endArrow=open;endSize=12;dashed=1;html=1;rounded=0;strokeColor=default;align=center;verticalAlign=middle;fontFamily=Helvetica;fontSize=11;fontColor=default;labelBackgroundColor=default;edgeStyle=none;" edge="1" parent="1" source="FVzBolpwq5gQXFxgnGa_-9" target="FVzBolpwq5gQXFxgnGa_-14">
          <mxGeometry width="160" relative="1" as="geometry">
            <mxPoint x="710" y="173" as="sourcePoint" />
            <mxPoint x="830" y="173" as="targetPoint" />
            <mxPoint as="offset" />
          </mxGeometry>
        </mxCell>
        <mxCell id="FVzBolpwq5gQXFxgnGa_-24" value="&amp;lt;&amp;lt;extend&amp;gt;&amp;gt;" style="endArrow=open;endSize=12;dashed=1;html=1;rounded=0;strokeColor=default;align=center;verticalAlign=middle;fontFamily=Helvetica;fontSize=11;fontColor=default;labelBackgroundColor=default;edgeStyle=none;" edge="1" parent="1" source="FVzBolpwq5gQXFxgnGa_-9" target="FVzBolpwq5gQXFxgnGa_-16">
          <mxGeometry width="160" relative="1" as="geometry">
            <mxPoint x="693" y="199" as="sourcePoint" />
            <mxPoint x="847" y="337" as="targetPoint" />
            <mxPoint as="offset" />
          </mxGeometry>
        </mxCell>
        <mxCell id="FVzBolpwq5gQXFxgnGa_-25" value="&amp;lt;&amp;lt;extend&amp;gt;&amp;gt;" style="endArrow=open;endSize=12;dashed=1;html=1;rounded=0;strokeColor=default;align=center;verticalAlign=middle;fontFamily=Helvetica;fontSize=11;fontColor=default;labelBackgroundColor=default;edgeStyle=none;" edge="1" parent="1" source="FVzBolpwq5gQXFxgnGa_-9" target="FVzBolpwq5gQXFxgnGa_-20">
          <mxGeometry width="160" relative="1" as="geometry">
            <mxPoint x="687" y="202" as="sourcePoint" />
            <mxPoint x="853" y="424" as="targetPoint" />
            <mxPoint as="offset" />
          </mxGeometry>
        </mxCell>
        <mxCell id="FVzBolpwq5gQXFxgnGa_-30" value="&amp;lt;&amp;lt;extend&amp;gt;&amp;gt;" style="endArrow=open;endSize=12;dashed=1;html=1;rounded=0;strokeColor=default;align=center;verticalAlign=middle;fontFamily=Helvetica;fontSize=11;fontColor=default;labelBackgroundColor=default;edgeStyle=none;" edge="1" parent="1" source="FVzBolpwq5gQXFxgnGa_-10" target="FVzBolpwq5gQXFxgnGa_-20">
          <mxGeometry width="160" relative="1" as="geometry">
            <mxPoint x="697" y="305" as="sourcePoint" />
            <mxPoint x="880" y="470" as="targetPoint" />
            <mxPoint as="offset" />
          </mxGeometry>
        </mxCell>
        <mxCell id="FVzBolpwq5gQXFxgnGa_-31" value="&amp;lt;&amp;lt;extend&amp;gt;&amp;gt;" style="endArrow=open;endSize=12;dashed=1;html=1;rounded=0;strokeColor=default;align=center;verticalAlign=middle;fontFamily=Helvetica;fontSize=11;fontColor=default;labelBackgroundColor=default;edgeStyle=none;" edge="1" parent="1" source="FVzBolpwq5gQXFxgnGa_-10" target="FVzBolpwq5gQXFxgnGa_-16">
          <mxGeometry width="160" relative="1" as="geometry">
            <mxPoint x="707" y="315" as="sourcePoint" />
            <mxPoint x="886" y="468" as="targetPoint" />
            <mxPoint as="offset" />
          </mxGeometry>
        </mxCell>
        <mxCell id="FVzBolpwq5gQXFxgnGa_-32" value="&amp;lt;&amp;lt;extend&amp;gt;&amp;gt;" style="endArrow=open;endSize=12;dashed=1;html=1;rounded=0;strokeColor=default;align=center;verticalAlign=middle;fontFamily=Helvetica;fontSize=11;fontColor=default;labelBackgroundColor=default;edgeStyle=none;" edge="1" parent="1" source="FVzBolpwq5gQXFxgnGa_-10" target="FVzBolpwq5gQXFxgnGa_-15">
          <mxGeometry width="160" relative="1" as="geometry">
            <mxPoint x="717" y="325" as="sourcePoint" />
            <mxPoint x="896" y="478" as="targetPoint" />
            <mxPoint as="offset" />
          </mxGeometry>
        </mxCell>
        <mxCell id="FVzBolpwq5gQXFxgnGa_-33" value="&amp;lt;&amp;lt;extend&amp;gt;&amp;gt;" style="endArrow=open;endSize=12;dashed=1;html=1;rounded=0;strokeColor=default;align=center;verticalAlign=middle;fontFamily=Helvetica;fontSize=11;fontColor=default;labelBackgroundColor=default;edgeStyle=none;" edge="1" parent="1" source="FVzBolpwq5gQXFxgnGa_-10" target="FVzBolpwq5gQXFxgnGa_-14">
          <mxGeometry width="160" relative="1" as="geometry">
            <mxPoint x="727" y="335" as="sourcePoint" />
            <mxPoint x="906" y="488" as="targetPoint" />
            <mxPoint as="offset" />
          </mxGeometry>
        </mxCell>
      </root>
    </mxGraphModel>
  </diagram>
</mxfile>
